<svg width="11" height="11" xmlns="http://www.w3.org/2000/svg" xmlns:xlink="http://www.w3.org/1999/xlink" xml:space="preserve" overflow="hidden"><g transform="translate(-260 -119)"><path d="M265.862 128.625 261.375 124.138 261.375 125.055C261.375 125.298 261.471 125.531 261.645 125.701L265.216 129.271C265.573 129.629 266.155 129.629 266.513 129.271L269.359 126.425C269.717 126.067 269.717 125.485 269.359 125.128L265.862 128.625Z"/><path d="M265.216 126.98C265.395 127.158 265.628 127.25 265.862 127.25 266.096 127.25 266.33 127.158 266.508 126.98L269.355 124.133C269.712 123.776 269.712 123.194 269.355 122.836L265.784 119.266C265.615 119.096 265.381 119 265.138 119L262.292 119C261.788 119 261.375 119.412 261.375 119.917L261.375 122.763C261.375 123.006 261.471 123.24 261.645 123.409L265.216 126.98ZM262.292 119.917 265.138 119.917 268.708 123.487 265.862 126.333 262.292 122.763 262.292 119.917Z"/><path d="M263.896 120.948C263.896 121.264 263.639 121.521 263.323 121.521 263.007 121.521 262.75 121.264 262.75 120.948 262.75 120.632 263.007 120.375 263.323 120.375 263.639 120.375 263.896 120.632 263.896 120.948Z"/></g></svg>