<svg width="11" height="11" xmlns="http://www.w3.org/2000/svg" xmlns:xlink="http://www.w3.org/1999/xlink" xml:space="preserve" overflow="hidden"><g transform="translate(-725 -119)"><path d="M733.74 121.26 733.094 121.906C733.781 122.594 734.167 123.527 734.167 124.5 734.167 126.526 732.526 128.167 730.5 128.167 728.474 128.167 726.833 126.526 726.833 124.5 726.833 122.63 728.231 121.09 730.042 120.865L730.042 121.791C728.74 122.011 727.75 123.139 727.75 124.5 727.75 126.017 728.983 127.25 730.5 127.25 732.017 127.25 733.25 126.017 733.25 124.5 733.25 123.739 732.943 123.052 732.443 122.557L731.797 123.203C732.127 123.537 732.333 123.996 732.333 124.5 732.333 125.513 731.513 126.333 730.5 126.333 729.487 126.333 728.667 125.513 728.667 124.5 728.667 123.647 729.253 122.937 730.042 122.731L730.042 123.712C729.767 123.872 729.583 124.161 729.583 124.5 729.583 125.004 729.996 125.417 730.5 125.417 731.004 125.417 731.417 125.004 731.417 124.5 731.417 124.161 731.233 123.868 730.958 123.712L730.958 119.917 730.5 119.917C727.97 119.917 725.917 121.97 725.917 124.5 725.917 127.03 727.97 129.083 730.5 129.083 733.03 129.083 735.083 127.03 735.083 124.5 735.083 123.235 734.57 122.089 733.74 121.26Z"/></g></svg>