<svg width="11" height="11" xmlns="http://www.w3.org/2000/svg" xmlns:xlink="http://www.w3.org/1999/xlink" xml:space="preserve" overflow="hidden"><g transform="translate(-726 -119)"><path d="M732.875 120.375 733.929 121.429 732.605 122.745 733.255 123.395 734.571 122.071 735.625 123.125 735.625 120.375 732.875 120.375ZM727.375 123.125 728.429 122.071 729.745 123.395 730.395 122.745 729.071 121.429 730.125 120.375 727.375 120.375 727.375 123.125ZM730.125 128.625 729.071 127.571 730.395 126.255 729.745 125.605 728.429 126.929 727.375 125.875 727.375 128.625 730.125 128.625ZM735.625 125.875 734.571 126.929 733.255 125.605 732.605 126.255 733.929 127.571 732.875 128.625 735.625 128.625 735.625 125.875Z"/></g></svg>