<svg width="11" height="11" xmlns="http://www.w3.org/2000/svg" xmlns:xlink="http://www.w3.org/1999/xlink" xml:space="preserve" overflow="hidden"><g transform="translate(-28 -119)"><path d="M35.0996 123.414C35.0171 122.135 34.4992 120.888 33.5275 119.917 32.5871 120.852 32.0104 122.092 31.9004 123.414 32.4871 123.725 33.0279 124.129 33.5 124.619 33.9721 124.133 34.5129 123.73 35.0996 123.414ZM33.5229 121.379C33.8117 121.851 34.0133 122.378 34.1188 122.928 33.9033 123.065 33.7017 123.217 33.5046 123.377 33.3121 123.221 33.1058 123.07 32.895 122.933 33.0096 122.382 33.2204 121.855 33.5229 121.379ZM33.5 126.081C33.1266 125.51 32.6512 125.013 32.0975 124.615 32.0379 124.573 31.9738 124.541 31.9142 124.495 31.9738 124.537 32.0379 124.573 32.0929 124.61 31.1692 123.941 30.0573 123.581 28.9167 123.583 28.9167 126.022 30.4567 128.084 32.5971 128.85 32.8858 128.955 33.1883 129.033 33.5 129.083 33.8117 129.028 34.1096 128.95 34.4029 128.85 36.5433 128.084 38.0833 126.022 38.0833 123.583 36.1675 123.583 34.4854 124.578 33.5 126.081ZM34.105 127.983C33.9033 128.052 33.7017 128.107 33.4954 128.153 33.2938 128.112 33.0967 128.057 32.9087 127.988 31.4008 127.447 30.2962 126.159 29.9525 124.619 30.4567 124.738 30.9379 124.945 31.3825 125.229L31.3733 125.233C31.4329 125.275 31.4925 125.316 31.5521 125.348L31.5842 125.366C32.0379 125.696 32.4275 126.104 32.7346 126.581L33.5 127.754 34.2654 126.585C34.575 126.112 34.9679 125.699 35.425 125.366L35.4571 125.343C35.4983 125.32 35.5396 125.293 35.5808 125.265L35.5763 125.256C36.0254 124.958 36.525 124.738 37.0475 124.615 36.7038 126.159 35.6038 127.447 34.105 127.983ZM32.1204 124.628C32.1113 124.624 32.1021 124.615 32.0975 124.61 32.0975 124.61 32.1021 124.61 32.1021 124.615 32.1067 124.619 32.1113 124.624 32.1204 124.628Z"/></g></svg>