<svg width="11" height="11" xmlns="http://www.w3.org/2000/svg" xmlns:xlink="http://www.w3.org/1999/xlink" xml:space="preserve" overflow="hidden"><g transform="translate(-494 -119)"><path d="M501.1 123.414C501.017 122.135 500.499 120.888 499.527 119.917 498.587 120.852 498.01 122.092 497.9 123.414 498.487 123.725 499.028 124.129 499.5 124.619 499.972 124.133 500.513 123.73 501.1 123.414ZM499.523 121.379C499.812 121.851 500.013 122.378 500.119 122.928 499.903 123.065 499.702 123.217 499.505 123.377 499.312 123.221 499.106 123.07 498.895 122.933 499.01 122.382 499.22 121.855 499.523 121.379ZM499.5 126.081C499.127 125.51 498.651 125.013 498.098 124.615 498.038 124.573 497.974 124.541 497.914 124.495 497.974 124.537 498.038 124.573 498.093 124.61 497.169 123.941 496.057 123.581 494.917 123.583 494.917 126.022 496.457 128.084 498.597 128.85 498.886 128.955 499.188 129.033 499.5 129.083 499.812 129.028 500.11 128.95 500.403 128.85 502.543 128.084 504.083 126.022 504.083 123.583 502.168 123.583 500.485 124.578 499.5 126.081ZM500.105 127.983C499.903 128.052 499.702 128.107 499.495 128.153 499.294 128.112 499.097 128.057 498.909 127.988 497.401 127.447 496.296 126.159 495.953 124.619 496.457 124.738 496.938 124.945 497.383 125.229L497.373 125.233C497.433 125.275 497.492 125.316 497.552 125.348L497.584 125.366C498.038 125.696 498.427 126.104 498.735 126.581L499.5 127.754 500.265 126.585C500.575 126.112 500.968 125.699 501.425 125.366L501.457 125.343C501.498 125.32 501.54 125.293 501.581 125.265L501.576 125.256C502.025 124.958 502.525 124.738 503.047 124.615 502.704 126.159 501.604 127.447 500.105 127.983ZM498.12 124.628C498.111 124.624 498.102 124.615 498.098 124.61 498.098 124.61 498.102 124.61 498.102 124.615 498.107 124.619 498.111 124.624 498.12 124.628Z"/></g></svg>