<svg width="11" height="11" xmlns="http://www.w3.org/2000/svg" xmlns:xlink="http://www.w3.org/1999/xlink" xml:space="preserve" overflow="hidden"><g transform="translate(-725 -119)"><path d="M734.341 122.928 733.777 123.776C734.329 124.877 734.291 126.182 733.676 127.25L727.324 127.25C726.312 125.496 726.915 123.253 728.669 122.242 729.736 121.627 731.04 121.589 732.141 122.14L732.989 121.576C730.858 120.209 728.023 120.829 726.656 122.96 725.735 124.397 725.688 126.226 726.535 127.708 726.698 127.99 726.998 128.165 727.324 128.167L733.672 128.167C734 128.168 734.305 127.993 734.469 127.708 735.33 126.217 735.282 124.368 734.345 122.923Z"/><path d="M729.854 126.063C730.212 126.421 730.792 126.421 731.15 126.064 731.15 126.063 731.151 126.063 731.151 126.063L733.745 122.172 729.854 124.766C729.496 125.124 729.495 125.704 729.853 126.062 729.853 126.062 729.854 126.063 729.854 126.063Z"/></g></svg>