<svg width="11" height="11" xmlns="http://www.w3.org/2000/svg" xmlns:xlink="http://www.w3.org/1999/xlink" xml:space="preserve" overflow="hidden"><g transform="translate(-494 -119)"><path d="M498.583 124.958C498.835 124.958 499.042 125.165 499.042 125.417 499.042 125.669 498.835 125.875 498.583 125.875 498.331 125.875 498.125 125.669 498.125 125.417 498.125 125.165 498.331 124.958 498.583 124.958M498.583 124.042C497.823 124.042 497.208 124.656 497.208 125.417 497.208 126.177 497.823 126.792 498.583 126.792 499.344 126.792 499.958 126.177 499.958 125.417 499.958 124.656 499.344 124.042 498.583 124.042ZM502.479 123.125 502.979 122.02 504.083 121.521 502.979 121.021 502.479 119.917 501.98 121.021 500.875 121.521 501.98 122.02 502.479 123.125ZM503.753 124.83 503.396 124.042 503.038 124.83 502.25 125.188 503.038 125.545 503.396 126.333 503.753 125.545 504.542 125.188 503.753 124.83ZM501.448 125.417C501.448 125.362 501.448 125.302 501.443 125.247L502.332 124.573 501.187 122.589 500.16 123.02C500.068 122.96 499.967 122.9 499.867 122.85L499.729 121.75 497.438 121.75 497.3 122.855C497.199 122.905 497.103 122.965 497.007 123.024L495.98 122.589 494.834 124.573 495.723 125.247C495.719 125.302 495.719 125.362 495.719 125.417 495.719 125.472 495.719 125.531 495.723 125.586L494.834 126.26 495.98 128.245 497.007 127.814C497.098 127.873 497.199 127.933 497.3 127.983L497.438 129.083 499.729 129.083 499.867 127.979C499.967 127.928 500.064 127.873 500.16 127.809L501.187 128.24 502.332 126.255 501.443 125.582C501.448 125.531 501.448 125.472 501.448 125.417ZM500.797 127.085 500.004 126.75C499.747 127.025 499.408 127.227 499.028 127.314L498.918 128.167 498.249 128.167 498.143 127.314C497.763 127.227 497.424 127.025 497.167 126.75L496.374 127.085 496.04 126.503 496.723 125.985C496.668 125.806 496.64 125.618 496.64 125.421 496.64 125.224 496.668 125.036 496.723 124.857L496.04 124.34 496.374 123.757 497.167 124.092C497.424 123.817 497.763 123.615 498.143 123.528L498.249 122.667 498.922 122.667 499.028 123.519C499.408 123.606 499.747 123.808 500.004 124.083L500.797 123.748 501.132 124.33 500.449 124.848C500.504 125.027 500.531 125.215 500.531 125.412 500.531 125.609 500.504 125.797 500.449 125.976L501.132 126.494 500.797 127.085Z"/></g></svg>