<svg width="11" height="11" xmlns="http://www.w3.org/2000/svg" xmlns:xlink="http://www.w3.org/1999/xlink" xml:space="preserve" overflow="hidden"><g transform="translate(-260 -119)"><path d="M269.341 122.928 268.777 123.776C269.329 124.877 269.291 126.182 268.676 127.25L262.324 127.25C261.312 125.496 261.915 123.253 263.669 122.242 264.736 121.627 266.04 121.589 267.141 122.14L267.989 121.576C265.858 120.209 263.023 120.829 261.656 122.96 260.735 124.397 260.689 126.226 261.535 127.708 261.698 127.99 261.998 128.165 262.324 128.167L268.672 128.167C269 128.168 269.305 127.993 269.469 127.708 270.33 126.217 270.282 124.368 269.345 122.923Z"/><path d="M264.854 126.063C265.212 126.421 265.792 126.421 266.15 126.064 266.15 126.063 266.151 126.063 266.151 126.063L268.745 122.172 264.854 124.766C264.496 125.124 264.495 125.704 264.853 126.062 264.853 126.062 264.854 126.063 264.854 126.063Z"/></g></svg>