<svg width="11" height="11" xmlns="http://www.w3.org/2000/svg" xmlns:xlink="http://www.w3.org/1999/xlink" xml:space="preserve" overflow="hidden"><g transform="translate(-261 -119)"><path d="M266.862 128.625 262.375 124.138 262.375 125.055C262.375 125.298 262.471 125.531 262.645 125.701L266.216 129.271C266.573 129.629 267.155 129.629 267.513 129.271L270.359 126.425C270.717 126.067 270.717 125.485 270.359 125.128L266.862 128.625Z"/><path d="M266.216 126.98C266.395 127.158 266.628 127.25 266.862 127.25 267.096 127.25 267.33 127.158 267.508 126.98L270.355 124.133C270.712 123.776 270.712 123.194 270.355 122.836L266.784 119.266C266.615 119.096 266.381 119 266.138 119L263.292 119C262.788 119 262.375 119.412 262.375 119.917L262.375 122.763C262.375 123.006 262.471 123.24 262.645 123.409L266.216 126.98ZM263.292 119.917 266.138 119.917 269.708 123.487 266.862 126.333 263.292 122.763 263.292 119.917Z"/><path d="M264.896 120.948C264.896 121.264 264.639 121.521 264.323 121.521 264.007 121.521 263.75 121.264 263.75 120.948 263.75 120.632 264.007 120.375 264.323 120.375 264.639 120.375 264.896 120.632 264.896 120.948Z"/></g></svg>