<svg width="11" height="11" xmlns="http://www.w3.org/2000/svg" xmlns:xlink="http://www.w3.org/1999/xlink" xml:space="preserve" overflow="hidden"><g transform="translate(-28 -119)"><path d="M36.7221 120.632C35.9567 119.995 35.0079 119.577 33.9583 119.481L33.9583 120.402C34.7513 120.49 35.4754 120.806 36.0713 121.283L36.7221 120.632ZM33.0417 120.402 33.0417 119.481C31.9921 119.573 31.0433 119.995 30.2779 120.632L30.9287 121.283C31.535 120.794 32.268 120.489 33.0417 120.402ZM30.2825 121.929 29.6317 121.278C28.9946 122.043 28.5775 122.992 28.4813 124.042L29.4025 124.042C29.4896 123.249 29.8058 122.525 30.2825 121.929ZM37.5975 124.042 38.5187 124.042C38.4225 122.992 38.0054 122.043 37.3683 121.278L36.7175 121.929C37.2058 122.535 37.5111 123.268 37.5975 124.042ZM31.2083 124.5 32.785 125.215 33.5 126.792 34.215 125.215 35.7917 124.5 34.215 123.785 33.5 122.208 32.785 123.785Z"/><path d="M33.5 128.625C32.1253 128.625 30.8419 127.937 30.0808 126.792L31.2083 126.792 31.2083 125.875 28.4583 125.875 28.4583 128.625 29.375 128.625 29.375 127.387C30.2871 128.689 31.7904 129.542 33.5 129.542 35.7321 129.542 37.625 128.089 38.285 126.077L37.3867 125.87C36.8229 127.47 35.2967 128.625 33.5 128.625Z"/></g></svg>